<svg version="1.2" xmlns="http://www.w3.org/2000/svg" viewBox="0 0 298 420" width="144" height="144">
	<style>
		.s0 { fill: #000000 } 
	</style>
	<g id="Layer 1">
		<path id="inh." class="s0" aria-label="inh."  d="m24.6 160.5q4.5 0 7.8 2.9 3.3 2.9 3.3 6.9 0 4-3.3 6.9-3.3 3-7.8 3-4.4 0-7.7-3-3.3-2.9-3.3-6.9 0-4 3.3-6.9 3.3-2.9 7.7-2.9zm9 36.7v66.5q0 6.5 2.9 8.8 3.1 2.3 10.2 2.3v3.2q-2.9-0.2-9-0.3-5.8-0.3-11.9-0.3-5.8 0-11.8 0.3-6.1 0.1-9 0.3v-3.2q7.1 0 10-2.3 3.1-2.3 3.1-8.8v-48.1q0-6.9-2.8-10.1-2.7-3.4-10.3-3.4v-3.2q5.5 0.5 10.7 0.5 5 0 9.4-0.5 4.7-0.6 8.5-1.7zm79.3-0.5q6.5 0 10.8 1.6 4.5 1.5 7.4 4.3 3.3 3.1 4.7 7.7 1.4 4.6 1.4 12.4v41q0 6.5 2.9 8.8 3.1 2.3 10.2 2.3v3.2q-3-0.2-9-0.3-6-0.3-11.7-0.3-5.7 0-11.2 0.3-5.4 0.1-8.1 0.3v-3.2q6.2 0 8.8-2.3 2.6-2.3 2.6-8.8v-44.4q0-4.7-0.9-8.7-0.9-4-4-6.5-2.9-2.4-9.1-2.4-7.2 0-12.7 3.6-5.4 3.7-8.5 10.2-2.9 6.3-2.9 14.1v34.1q0 6.5 2.6 8.8 2.6 2.3 8.8 2.3v3.2q-2.8-0.2-8.3-0.3-5.3-0.3-11-0.3-5.7 0-11.7 0.3-6.1 0.1-9 0.3v-3.2q7.1 0 10-2.3 3.1-2.3 3.1-8.8v-48.1q0-6.9-2.8-10.1-2.7-3.4-10.3-3.4v-3.2q5.5 0.5 10.7 0.5 5 0 9.4-0.5 4.7-0.6 8.5-1.7v18.1q4.5-10.4 12.4-14.4 8.1-4.2 16.9-4.2zm72.1-39v57.5q4.5-10.5 12.4-14.5 8.1-4 16.9-4 6.6 0 10.9 1.6 4.5 1.5 7.4 4.3 3.3 3.1 4.6 7.7 1.4 4.6 1.4 12.4v41q0 6.5 2.9 8.8 3.1 2.3 10.2 2.3v3.2q-2.9-0.2-9-0.3-6-0.3-11.7-0.3-5.7 0-11.2 0.3-5.3 0.1-8.1 0.3v-3.2q6.2 0 8.8-2.3 2.6-2.3 2.6-8.8v-44.4q0-4.7-0.9-8.7-0.8-4-3.9-6.5-2.9-2.4-9.1-2.4-7.1 0-12.6 3.5-5.4 3.5-8.5 9.8-3.1 6.3-3.1 14.5v34.2q0 6.5 2.6 8.8 2.6 2.3 8.8 2.3v3.2q-2.7-0.2-8.3-0.3-5.3-0.3-11-0.3-5.7 0-11.7 0.3-6 0.1-9 0.3v-3.2q7.1 0 10-2.3 3.1-2.3 3.1-8.8v-87.5q0-7-2.7-10.2-2.8-3.4-10.4-3.4v-3.2q5.6 0.5 10.7 0.5 5 0 9.5-0.5 4.6-0.6 8.4-1.7zm91.7 102.8q4.5 0 7.8 2.9 3.2 2.9 3.2 6.9 0 4-3.2 6.9-3.3 3-7.8 3-4.5 0-7.7-3-3.3-2.9-3.3-6.9 0-4 3.3-6.9 3.2-2.9 7.7-2.9z"/>
	</g>
</svg>